<mxfile host="Electron" modified="2023-04-02T14:01:05.559Z" agent="Mozilla/5.0 (Windows NT 10.0; Win64; x64) AppleWebKit/537.36 (KHTML, like Gecko) draw.io/21.1.2 Chrome/106.0.5249.199 Electron/21.4.3 Safari/537.36" etag="jFOwChLUDWgUb-xELJPs" version="21.1.2" type="device">
  <diagram id="8EdXg-V_G5D-zmOJXyRM" name="第 1 页">
    <mxGraphModel dx="1013" dy="1760" grid="1" gridSize="10" guides="1" tooltips="1" connect="1" arrows="1" fold="1" page="1" pageScale="1" pageWidth="827" pageHeight="1169" math="0" shadow="0">
      <root>
        <mxCell id="0" />
        <mxCell id="1" parent="0" />
        <mxCell id="X5XJv08TGnf4dH30cQGS-10" value="" style="edgeStyle=orthogonalEdgeStyle;rounded=0;orthogonalLoop=1;jettySize=auto;html=1;" parent="1" source="C53yO7oKpuxl-ZIqxZP7-1" target="X5XJv08TGnf4dH30cQGS-4" edge="1">
          <mxGeometry relative="1" as="geometry" />
        </mxCell>
        <mxCell id="C53yO7oKpuxl-ZIqxZP7-1" value="const container = document.getElementId(&#39;root&#39;)&lt;br&gt;&lt;font color=&quot;#ff0000&quot;&gt;ReactDOM.createRoot(container)&lt;/font&gt;" style="rounded=0;whiteSpace=wrap;html=1;" parent="1" vertex="1">
          <mxGeometry x="80" y="180" width="460" height="100" as="geometry" />
        </mxCell>
        <mxCell id="X5XJv08TGnf4dH30cQGS-3" value="react-dom包导出的createRoot函数会经过一路函数命名修正，最后指向createFiberRoot函数" style="rounded=0;whiteSpace=wrap;html=1;" parent="1" vertex="1">
          <mxGeometry x="621.25" y="-180" width="170" height="100" as="geometry" />
        </mxCell>
        <mxCell id="X5XJv08TGnf4dH30cQGS-5" value="" style="edgeStyle=orthogonalEdgeStyle;rounded=0;orthogonalLoop=1;jettySize=auto;html=1;exitX=0.5;exitY=1;exitDx=0;exitDy=0;entryX=0.5;entryY=1;entryDx=0;entryDy=0;entryPerimeter=0;" parent="1" source="X5XJv08TGnf4dH30cQGS-4" target="X5XJv08TGnf4dH30cQGS-4" edge="1">
          <mxGeometry relative="1" as="geometry" />
        </mxCell>
        <mxCell id="X5XJv08TGnf4dH30cQGS-11" value="" style="edgeStyle=orthogonalEdgeStyle;rounded=0;orthogonalLoop=1;jettySize=auto;html=1;" parent="1" source="X5XJv08TGnf4dH30cQGS-4" target="X5XJv08TGnf4dH30cQGS-6" edge="1">
          <mxGeometry relative="1" as="geometry" />
        </mxCell>
        <mxCell id="X5XJv08TGnf4dH30cQGS-4" value="import ReactDOM from &quot;react-dom/client&quot;" style="rounded=0;whiteSpace=wrap;html=1;" parent="1" vertex="1">
          <mxGeometry x="190" y="90" width="240" height="60" as="geometry" />
        </mxCell>
        <mxCell id="X5XJv08TGnf4dH30cQGS-13" value="" style="edgeStyle=orthogonalEdgeStyle;rounded=0;orthogonalLoop=1;jettySize=auto;html=1;" parent="1" source="X5XJv08TGnf4dH30cQGS-6" target="X5XJv08TGnf4dH30cQGS-12" edge="1">
          <mxGeometry relative="1" as="geometry" />
        </mxCell>
        <mxCell id="X5XJv08TGnf4dH30cQGS-6" value="react-dom/client.js" style="rounded=0;whiteSpace=wrap;html=1;" parent="1" vertex="1">
          <mxGeometry x="250" y="-10" width="120" height="60" as="geometry" />
        </mxCell>
        <mxCell id="X5XJv08TGnf4dH30cQGS-15" value="" style="edgeStyle=orthogonalEdgeStyle;rounded=0;orthogonalLoop=1;jettySize=auto;html=1;" parent="1" source="X5XJv08TGnf4dH30cQGS-12" target="X5XJv08TGnf4dH30cQGS-14" edge="1">
          <mxGeometry relative="1" as="geometry" />
        </mxCell>
        <mxCell id="X5XJv08TGnf4dH30cQGS-12" value="react-dom/index.js" style="rounded=0;whiteSpace=wrap;html=1;" parent="1" vertex="1">
          <mxGeometry x="250" y="-110" width="120" height="60" as="geometry" />
        </mxCell>
        <mxCell id="X5XJv08TGnf4dH30cQGS-17" value="" style="edgeStyle=orthogonalEdgeStyle;rounded=0;orthogonalLoop=1;jettySize=auto;html=1;" parent="1" source="X5XJv08TGnf4dH30cQGS-14" target="X5XJv08TGnf4dH30cQGS-16" edge="1">
          <mxGeometry relative="1" as="geometry" />
        </mxCell>
        <mxCell id="X5XJv08TGnf4dH30cQGS-14" value="react-dom/src/client/ReactDOM" style="rounded=0;whiteSpace=wrap;html=1;" parent="1" vertex="1">
          <mxGeometry x="230" y="-200" width="160" height="60" as="geometry" />
        </mxCell>
        <mxCell id="X5XJv08TGnf4dH30cQGS-22" value="" style="edgeStyle=orthogonalEdgeStyle;rounded=0;orthogonalLoop=1;jettySize=auto;html=1;" parent="1" source="X5XJv08TGnf4dH30cQGS-16" target="X5XJv08TGnf4dH30cQGS-21" edge="1">
          <mxGeometry relative="1" as="geometry" />
        </mxCell>
        <mxCell id="X5XJv08TGnf4dH30cQGS-16" value="./ReactDOMRoot&lt;br&gt;&lt;br&gt;import {createContainer} from &quot;react-reconciler/src/ReactFiberReconciler&quot;&lt;br&gt;&lt;br&gt;function createRoot(container, options) {&lt;br&gt;&lt;blockquote style=&quot;margin: 0 0 0 40px; border: none; padding: 0px;&quot;&gt;const root = &lt;font color=&quot;#ff0000&quot;&gt;createContainer&lt;/font&gt;(container, ConcurrentRoot, null, isStrictMode, ...)&lt;br&gt;&lt;font color=&quot;#ff0000&quot;&gt;markContainerAsRoot&lt;/font&gt;(root.current, container)&lt;br&gt;&lt;font color=&quot;#ff0000&quot;&gt;listenToAllSupportedEvents(rootContainerElement)&lt;/font&gt;;&lt;/blockquote&gt;&lt;blockquote style=&quot;margin: 0 0 0 40px; border: none; padding: 0px;&quot;&gt;return &lt;font color=&quot;#ff0000&quot;&gt;new ReactDOMRoot&lt;/font&gt;(root)&lt;/blockquote&gt;}" style="rounded=0;whiteSpace=wrap;html=1;align=left;" parent="1" vertex="1">
          <mxGeometry x="58.75" y="-390" width="502.5" height="160" as="geometry" />
        </mxCell>
        <mxCell id="X5XJv08TGnf4dH30cQGS-25" value="" style="edgeStyle=orthogonalEdgeStyle;rounded=0;orthogonalLoop=1;jettySize=auto;html=1;" parent="1" source="X5XJv08TGnf4dH30cQGS-21" target="X5XJv08TGnf4dH30cQGS-24" edge="1">
          <mxGeometry relative="1" as="geometry" />
        </mxCell>
        <mxCell id="X5XJv08TGnf4dH30cQGS-21" value="react-reconciler/src/ReactFiberReconciler&lt;br&gt;&lt;br&gt;createContainer()" style="rounded=0;whiteSpace=wrap;html=1;align=center;" parent="1" vertex="1">
          <mxGeometry x="147.5" y="-560" width="325" height="120" as="geometry" />
        </mxCell>
        <mxCell id="X5XJv08TGnf4dH30cQGS-23" value="createContainer" style="text;html=1;strokeColor=none;fillColor=none;align=center;verticalAlign=middle;whiteSpace=wrap;rounded=0;" parent="1" vertex="1">
          <mxGeometry x="310" y="-430" width="90" height="30" as="geometry" />
        </mxCell>
        <mxCell id="X5XJv08TGnf4dH30cQGS-24" value="&lt;div style=&quot;text-align: left;&quot;&gt;&lt;span style=&quot;background-color: initial;&quot;&gt;react-reconciler/src/ReactFiberRoot.old&lt;/span&gt;&lt;/div&gt;&lt;br&gt;&lt;div style=&quot;text-align: left;&quot;&gt;&lt;span style=&quot;background-color: initial;&quot;&gt;function createFiberRoot&lt;/span&gt;&lt;font style=&quot;background-color: initial;&quot; color=&quot;#12ffb8&quot;&gt; &lt;/font&gt;&lt;span style=&quot;background-color: initial;&quot;&gt;() {&lt;/span&gt;&lt;/div&gt;&lt;blockquote style=&quot;margin: 0 0 0 40px; border: none; padding: 0px;&quot;&gt;&lt;div style=&quot;text-align: left;&quot;&gt;&lt;span style=&quot;background-color: initial;&quot;&gt;const root = &lt;/span&gt;&lt;font style=&quot;background-color: initial;&quot; color=&quot;#ff0000&quot;&gt;new FiberRootNode&lt;/font&gt;&lt;span style=&quot;background-color: initial;&quot;&gt;()&lt;/span&gt;&lt;/div&gt;&lt;div style=&quot;text-align: left;&quot;&gt;&lt;span style=&quot;background-color: initial;&quot;&gt;const uninitializedFiber = &lt;/span&gt;&lt;font style=&quot;background-color: initial;&quot; color=&quot;#ff0000&quot;&gt;createHostRootFiber&lt;/font&gt;&lt;span style=&quot;background-color: initial;&quot;&gt;()&lt;/span&gt;&lt;/div&gt;&lt;div style=&quot;text-align: left;&quot;&gt;&lt;span style=&quot;background-color: initial;&quot;&gt;root.current = uninitializedFiber&lt;/span&gt;&lt;/div&gt;&lt;div style=&quot;text-align: left;&quot;&gt;&lt;span style=&quot;background-color: initial;&quot;&gt;uninitializedFiber.stateNode = root&lt;/span&gt;&lt;/div&gt;&lt;font color=&quot;#ff0000&quot;&gt;&lt;div style=&quot;text-align: left;&quot;&gt;&lt;font style=&quot;background-color: initial;&quot; color=&quot;#ff0000&quot;&gt;initializedUpdateQueue&lt;/font&gt;&lt;span style=&quot;background-color: initial; color: rgb(0, 0, 0);&quot;&gt;(uninitializedFiber)&lt;/span&gt;&lt;/div&gt;&lt;/font&gt;&lt;div style=&quot;text-align: left;&quot;&gt;&lt;span style=&quot;background-color: initial;&quot;&gt;return root&lt;/span&gt;&lt;/div&gt;&lt;/blockquote&gt;&lt;div style=&quot;text-align: left;&quot;&gt;&lt;span style=&quot;background-color: initial;&quot;&gt;}&lt;/span&gt;&lt;/div&gt;" style="rounded=0;whiteSpace=wrap;html=1;align=center;" parent="1" vertex="1">
          <mxGeometry x="110" y="-760" width="400" height="160" as="geometry" />
        </mxCell>
        <mxCell id="X5XJv08TGnf4dH30cQGS-26" value="" style="shape=curlyBracket;whiteSpace=wrap;html=1;rounded=1;flipH=1;labelPosition=right;verticalLabelPosition=middle;align=left;verticalAlign=middle;size=0;" parent="1" vertex="1">
          <mxGeometry x="561.25" y="-630" width="60" height="870" as="geometry" />
        </mxCell>
        <mxCell id="iyPwCgTEbjJZRqK4awa6-1" value="转发调用createFiberRoot" style="text;html=1;strokeColor=none;fillColor=none;align=center;verticalAlign=middle;whiteSpace=wrap;rounded=0;" parent="1" vertex="1">
          <mxGeometry x="300" y="-590" width="110" height="30" as="geometry" />
        </mxCell>
        <mxCell id="iyPwCgTEbjJZRqK4awa6-2" value="react-reconciler/src/ReactFiber.old.js&lt;br&gt;&amp;nbsp;&lt;br&gt;&lt;div style=&quot;text-align: left;&quot;&gt;const createFiber = function(&lt;span style=&quot;background-color: initial;&quot;&gt;): Fiber {&lt;/span&gt;&lt;/div&gt;&lt;div style=&quot;text-align: left;&quot;&gt;&amp;nbsp; return new &lt;font color=&quot;#ff0000&quot;&gt;FiberNode&lt;/font&gt;();&lt;/div&gt;&lt;div style=&quot;text-align: left;&quot;&gt;};&lt;/div&gt;" style="rounded=0;whiteSpace=wrap;html=1;" parent="1" vertex="1">
          <mxGeometry x="800" y="-720" width="220" height="80" as="geometry" />
        </mxCell>
        <mxCell id="iyPwCgTEbjJZRqK4awa6-3" value="" style="endArrow=classic;startArrow=classic;html=1;rounded=0;exitX=0.771;exitY=0.375;exitDx=0;exitDy=0;exitPerimeter=0;entryX=0;entryY=0.5;entryDx=0;entryDy=0;" parent="1" source="X5XJv08TGnf4dH30cQGS-24" target="iyPwCgTEbjJZRqK4awa6-2" edge="1">
          <mxGeometry width="50" height="50" relative="1" as="geometry">
            <mxPoint x="560" y="-700" as="sourcePoint" />
            <mxPoint x="610" y="-750" as="targetPoint" />
          </mxGeometry>
        </mxCell>
        <mxCell id="iyPwCgTEbjJZRqK4awa6-4" value="转发调用createFiber" style="text;html=1;strokeColor=none;fillColor=none;align=center;verticalAlign=middle;whiteSpace=wrap;rounded=0;" parent="1" vertex="1">
          <mxGeometry x="600" y="-700" width="118.75" height="20" as="geometry" />
        </mxCell>
        <mxCell id="iyPwCgTEbjJZRqK4awa6-6" value="" style="endArrow=classic;startArrow=classic;html=1;rounded=0;entryX=0;entryY=0.5;entryDx=0;entryDy=0;" parent="1" target="iyPwCgTEbjJZRqK4awa6-8" edge="1">
          <mxGeometry width="50" height="50" relative="1" as="geometry">
            <mxPoint x="422.5" y="-650" as="sourcePoint" />
            <mxPoint x="730" y="-599.795918367347" as="targetPoint" />
          </mxGeometry>
        </mxCell>
        <mxCell id="iyPwCgTEbjJZRqK4awa6-8" value="react-reconciler/src/ReactFiberClassUpdateQueue.old.js&lt;br&gt;&lt;div style=&quot;text-align: left;&quot;&gt;&lt;span style=&quot;background-color: initial;&quot;&gt;function initializeUpdateQueue() {&lt;/span&gt;&lt;/div&gt;&lt;div style=&quot;text-align: left;&quot;&gt;&lt;span style=&quot;background-color: initial;&quot;&gt;&amp;nbsp; const queue = {&lt;/span&gt;&lt;/div&gt;&lt;div style=&quot;text-align: left;&quot;&gt;&amp;nbsp; &amp;nbsp; baseState: fiber.memoizedState,&lt;/div&gt;&lt;div style=&quot;text-align: left;&quot;&gt;&amp;nbsp; &amp;nbsp; firstBaseUpdate: null,&lt;/div&gt;&lt;div style=&quot;text-align: left;&quot;&gt;&amp;nbsp; &amp;nbsp; lastBaseUpdate: null,&lt;/div&gt;&lt;div style=&quot;text-align: left;&quot;&gt;&amp;nbsp; &amp;nbsp; shared: {&lt;/div&gt;&lt;div style=&quot;text-align: left;&quot;&gt;&amp;nbsp; &amp;nbsp; &amp;nbsp; pending: null,&lt;/div&gt;&lt;div style=&quot;text-align: left;&quot;&gt;&amp;nbsp; &amp;nbsp; &amp;nbsp; interleaved: null,&lt;/div&gt;&lt;div style=&quot;text-align: left;&quot;&gt;&amp;nbsp; &amp;nbsp; &amp;nbsp; lanes: NoLanes,&lt;/div&gt;&lt;div style=&quot;text-align: left;&quot;&gt;&amp;nbsp; &amp;nbsp; },&lt;/div&gt;&lt;div style=&quot;text-align: left;&quot;&gt;&amp;nbsp; &amp;nbsp; effects: null,&lt;/div&gt;&lt;div style=&quot;text-align: left;&quot;&gt;&amp;nbsp; };&lt;/div&gt;&lt;div style=&quot;text-align: left;&quot;&gt;&amp;nbsp; fiber.updateQueue = queue;&lt;/div&gt;&lt;div style=&quot;text-align: left;&quot;&gt;&lt;span style=&quot;background-color: initial;&quot;&gt;}&lt;/span&gt;&lt;/div&gt;" style="rounded=0;whiteSpace=wrap;html=1;" parent="1" vertex="1">
          <mxGeometry x="800" y="-600" width="310" height="230" as="geometry" />
        </mxCell>
        <mxCell id="iyPwCgTEbjJZRqK4awa6-11" value="react-reconciler/src/ReactDOMComponentTree.js&lt;br&gt;&lt;br&gt;&lt;div&gt;export function markContainerAsRoot(hostRoot: Fiber, node: Container): void {&lt;/div&gt;&lt;div&gt;&amp;nbsp; node[internalContainerInstanceKey] = hostRoot;&lt;/div&gt;&lt;div style=&quot;&quot;&gt;}&lt;/div&gt;" style="rounded=0;whiteSpace=wrap;html=1;align=left;" parent="1" vertex="1">
          <mxGeometry x="680" y="-320" width="420" height="90" as="geometry" />
        </mxCell>
        <mxCell id="iyPwCgTEbjJZRqK4awa6-12" value="" style="endArrow=classic;startArrow=classic;html=1;rounded=0;entryX=0;entryY=0.444;entryDx=0;entryDy=0;entryPerimeter=0;" parent="1" target="iyPwCgTEbjJZRqK4awa6-11" edge="1">
          <mxGeometry width="50" height="50" relative="1" as="geometry">
            <mxPoint x="350" y="-285" as="sourcePoint" />
            <mxPoint x="400" y="-335" as="targetPoint" />
          </mxGeometry>
        </mxCell>
        <mxCell id="logeNmHv6F0n3gCZz8NC-2" value="" style="rounded=0;whiteSpace=wrap;html=1;dashed=1;" vertex="1" parent="1">
          <mxGeometry x="1280" y="-480" width="690" height="430" as="geometry" />
        </mxCell>
        <mxCell id="logeNmHv6F0n3gCZz8NC-3" value="div#root" style="ellipse;whiteSpace=wrap;html=1;fillColor=#ffff88;strokeColor=#36393d;" vertex="1" parent="1">
          <mxGeometry x="1570" y="-420" width="120" height="80" as="geometry" />
        </mxCell>
        <mxCell id="logeNmHv6F0n3gCZz8NC-4" value="FiberRoot&lt;br&gt;&lt;br&gt;(FiberRootNode)" style="ellipse;whiteSpace=wrap;html=1;fillColor=#fff2cc;strokeColor=#d6b656;" vertex="1" parent="1">
          <mxGeometry x="1570" y="-220" width="120" height="80" as="geometry" />
        </mxCell>
        <mxCell id="logeNmHv6F0n3gCZz8NC-5" value="root&lt;br&gt;&lt;br&gt;(ReactDOMRoot)" style="ellipse;whiteSpace=wrap;html=1;fillColor=#cdeb8b;strokeColor=#36393d;" vertex="1" parent="1">
          <mxGeometry x="1310" y="-220" width="140" height="80" as="geometry" />
        </mxCell>
        <mxCell id="logeNmHv6F0n3gCZz8NC-6" value="rootFiber&lt;br&gt;&lt;br&gt;(FiberNode)" style="ellipse;whiteSpace=wrap;html=1;fillColor=#d5e8d4;strokeColor=#82b366;gradientColor=#97d077;" vertex="1" parent="1">
          <mxGeometry x="1810" y="-220" width="120" height="80" as="geometry" />
        </mxCell>
        <mxCell id="logeNmHv6F0n3gCZz8NC-7" value="" style="endArrow=classic;html=1;rounded=0;entryX=0;entryY=0.5;entryDx=0;entryDy=0;dashed=1;" edge="1" parent="1" target="logeNmHv6F0n3gCZz8NC-4">
          <mxGeometry relative="1" as="geometry">
            <mxPoint x="1450" y="-180.34000000000003" as="sourcePoint" />
            <mxPoint x="1550" y="-180.34000000000003" as="targetPoint" />
          </mxGeometry>
        </mxCell>
        <mxCell id="logeNmHv6F0n3gCZz8NC-8" value="_internalRoot" style="edgeLabel;resizable=0;html=1;align=center;verticalAlign=middle;" connectable="0" vertex="1" parent="logeNmHv6F0n3gCZz8NC-7">
          <mxGeometry relative="1" as="geometry" />
        </mxCell>
        <mxCell id="logeNmHv6F0n3gCZz8NC-9" value="" style="endArrow=classic;html=1;rounded=0;dashed=1;" edge="1" parent="1" target="logeNmHv6F0n3gCZz8NC-6">
          <mxGeometry relative="1" as="geometry">
            <mxPoint x="1690" y="-180.34000000000003" as="sourcePoint" />
            <mxPoint x="1790" y="-180.34000000000003" as="targetPoint" />
          </mxGeometry>
        </mxCell>
        <mxCell id="logeNmHv6F0n3gCZz8NC-10" value="current" style="edgeLabel;resizable=0;html=1;align=center;verticalAlign=middle;" connectable="0" vertex="1" parent="logeNmHv6F0n3gCZz8NC-9">
          <mxGeometry relative="1" as="geometry" />
        </mxCell>
        <mxCell id="logeNmHv6F0n3gCZz8NC-11" value="" style="endArrow=classic;html=1;exitX=0;exitY=0;exitDx=0;exitDy=0;entryX=1;entryY=0;entryDx=0;entryDy=0;curved=1;dashed=1;" edge="1" parent="1" source="logeNmHv6F0n3gCZz8NC-6" target="logeNmHv6F0n3gCZz8NC-4">
          <mxGeometry relative="1" as="geometry">
            <mxPoint x="1500" y="-230" as="sourcePoint" />
            <mxPoint x="1600" y="-230" as="targetPoint" />
            <Array as="points">
              <mxPoint x="1750" y="-220" />
            </Array>
          </mxGeometry>
        </mxCell>
        <mxCell id="logeNmHv6F0n3gCZz8NC-12" value="stateNode" style="edgeLabel;resizable=0;html=1;align=center;verticalAlign=middle;" connectable="0" vertex="1" parent="logeNmHv6F0n3gCZz8NC-11">
          <mxGeometry relative="1" as="geometry" />
        </mxCell>
        <mxCell id="logeNmHv6F0n3gCZz8NC-13" value="" style="endArrow=classic;html=1;entryX=0.5;entryY=1;entryDx=0;entryDy=0;curved=1;dashed=1;" edge="1" parent="1" source="logeNmHv6F0n3gCZz8NC-4" target="logeNmHv6F0n3gCZz8NC-3">
          <mxGeometry relative="1" as="geometry">
            <mxPoint x="1500" y="-230" as="sourcePoint" />
            <mxPoint x="1600" y="-230" as="targetPoint" />
          </mxGeometry>
        </mxCell>
        <mxCell id="logeNmHv6F0n3gCZz8NC-14" value="containerInfo" style="edgeLabel;resizable=0;html=1;align=center;verticalAlign=middle;" connectable="0" vertex="1" parent="logeNmHv6F0n3gCZz8NC-13">
          <mxGeometry relative="1" as="geometry" />
        </mxCell>
        <mxCell id="logeNmHv6F0n3gCZz8NC-15" value="" style="endArrow=classic;html=1;exitX=0.977;exitY=0.677;exitDx=0;exitDy=0;exitPerimeter=0;entryX=0.5;entryY=0;entryDx=0;entryDy=0;dashed=1;curved=1;" edge="1" parent="1" target="logeNmHv6F0n3gCZz8NC-6">
          <mxGeometry relative="1" as="geometry">
            <mxPoint x="1688.2399999999998" y="-365.8399999999999" as="sourcePoint" />
            <mxPoint x="1841.04" y="-220" as="targetPoint" />
            <Array as="points">
              <mxPoint x="1820" y="-310" />
            </Array>
          </mxGeometry>
        </mxCell>
        <mxCell id="logeNmHv6F0n3gCZz8NC-16" value="__reactContainer$+randomKey" style="edgeLabel;resizable=0;html=1;align=center;verticalAlign=middle;" connectable="0" vertex="1" parent="logeNmHv6F0n3gCZz8NC-15">
          <mxGeometry relative="1" as="geometry" />
        </mxCell>
        <mxCell id="logeNmHv6F0n3gCZz8NC-17" value="&amp;lt;App /&amp;gt;" style="ellipse;whiteSpace=wrap;html=1;fillColor=#ffcc99;strokeColor=#36393d;" vertex="1" parent="1">
          <mxGeometry x="1840" y="-450" width="120" height="80" as="geometry" />
        </mxCell>
        <mxCell id="logeNmHv6F0n3gCZz8NC-18" value="ReactDOM.createRoot之后，未调用render时的内存对象引用情况，此reactElement(&amp;lt;App /&amp;gt;)还独立在外，还未和目前创建的这些全局对象简历关联" style="text;html=1;strokeColor=none;fillColor=none;align=left;verticalAlign=middle;whiteSpace=wrap;rounded=0;" vertex="1" parent="1">
          <mxGeometry x="1310" y="-100" width="300" height="30" as="geometry" />
        </mxCell>
        <mxCell id="logeNmHv6F0n3gCZz8NC-19" value="" style="html=1;shadow=0;dashed=0;align=center;verticalAlign=middle;shape=mxgraph.arrows2.arrow;dy=0.6;dx=40;notch=0;" vertex="1" parent="1">
          <mxGeometry x="1160" y="-370" width="100" height="70" as="geometry" />
        </mxCell>
      </root>
    </mxGraphModel>
  </diagram>
</mxfile>
